<svg width="20" height="20" viewBox="0 0 20 20" fill="none" xmlns="http://www.w3.org/2000/svg">
<path d="M16.6706 8.43338C16.904 8.66671 16.904 9.03338 16.6706 9.26671L10.0373 15.9C8.93729 17 7.67063 17.6 6.4873 17.6C6.1873 17.6 5.8873 17.5667 5.5873 17.4833C4.42063 17.1667 3.52062 16.2667 3.20395 15.05C2.80395 13.55 3.33729 11.9167 4.68729 10.5667L12.0706 3.18338C13.2706 1.98338 14.9373 2.36669 15.904 3.33336C17.2206 4.65003 16.854 6.20003 15.9706 7.08336L8.52062 14.5334C7.53729 15.5167 6.42062 15.45 5.85396 14.8667C5.28729 14.2834 5.22062 13.2 6.20395 12.2L11.2373 7.16669C11.4706 6.93336 11.8373 6.93336 12.0706 7.16669C12.304 7.40003 12.304 7.76669 12.0706 8.00003L7.03729 13.0334C6.60395 13.4667 6.53729 13.8834 6.68729 14.05C6.85396 14.2167 7.27062 14.15 7.70395 13.7167L15.154 6.26671C15.904 5.51671 15.5873 4.66669 15.0873 4.16669C14.5206 3.60003 13.604 3.31669 12.904 4.03335L5.52062 11.4167C4.47062 12.4667 4.0373 13.6834 4.3373 14.7667C4.55396 15.5667 5.1373 16.1667 5.90397 16.3667C6.9373 16.65 8.12064 16.1834 9.22064 15.0834L15.854 8.45002C16.0706 8.21669 16.4373 8.21671 16.6706 8.43338Z" fill="currentColor"/>
</svg>
