<svg width="24" height="24" viewBox="0 0 24 24" fill="none" xmlns="http://www.w3.org/2000/svg">
<path d="M12 4H6C4.89543 4 4 4.89543 4 6V18C4 19.1046 4.89543 20 6 20H18C19.1046 20 20 19.1046 20 18V12M18.4142 8.4142L19.5 7.32845C20.281 6.5474 20.281 5.28108 19.5 4.50003C18.7189 3.71898 17.4526 3.71898 16.6715 4.50004L15.5858 5.58578M18.4142 8.4142L12.3779 14.4506C12.0987 14.7298 11.7431 14.9201 11.356 14.9975L8.41422 15.5859L9.00257 12.6441C9.08001 12.2569 9.27032 11.9013 9.54951 11.6221L15.5858 5.58578M18.4142 8.4142L15.5858 5.58578" stroke="currentColor" stroke-width="1.5" stroke-linecap="round" stroke-linejoin="round"/>
</svg>
