<svg width="24" height="25" viewBox="0 0 24 25" fill="none" xmlns="http://www.w3.org/2000/svg">
<path d="M12 5.22728C5.63636 5.22728 2 12.5 2 12.5C2 12.5 2.6278 13.7556 3.81818 15.2234C5.49271 17.2881 8.28049 19.7727 12 19.7727C15.7195 19.7727 18.5073 17.2881 20.1818 15.2234L22 12.5C22 12.5 18.3636 5.22728 12 5.22728Z" stroke="currentColor" stroke-width="1.5" stroke-linecap="round" stroke-linejoin="round"/>
<path d="M14.727 11.1198C14.4261 10.607 13.9658 10.2065 13.4163 9.97946C12.8668 9.75239 12.2581 9.71111 11.683 9.86192C11.1079 10.0127 10.5978 10.3474 10.2304 10.8148C9.863 11.2823 9.65845 11.8571 9.64789 12.4516C9.63733 13.046 9.82133 13.6277 10.1719 14.1079C10.5224 14.5882 11.0203 14.9407 11.5897 15.1119C12.1591 15.283 12.7689 15.2634 13.3261 15.056C13.8833 14.8486 14.3575 14.4647 14.6764 13.9629" stroke="currentColor" stroke-width="1.5" stroke-linecap="round" stroke-linejoin="round"/>
</svg>
