<svg width="25" height="24" viewBox="0 0 25 24" fill="none" xmlns="http://www.w3.org/2000/svg">
<path d="M4.5 6C4.5 4.89543 5.39543 4 6.5 4H12.5H14.6716C15.202 4 15.7107 4.21071 16.0858 4.58579L19.9142 8.41421C20.2893 8.78929 20.5 9.29799 20.5 9.82843V12V18C20.5 19.1046 19.6046 20 18.5 20H6.5C5.39543 20 4.5 19.1046 4.5 18V6Z" stroke="currentColor" stroke-width="1.5" stroke-linecap="round" stroke-linejoin="round"/>
<path d="M8.5 4H13.5V7C13.5 7.55228 13.0523 8 12.5 8H9.5C8.94772 8 8.5 7.55228 8.5 7V4Z" stroke="currentColor" stroke-width="1.5" stroke-linecap="round" stroke-linejoin="round"/>
<path d="M7.5 15C7.5 13.8954 8.39543 13 9.5 13H15.5C16.6046 13 17.5 13.8954 17.5 15V20H7.5V15Z" stroke="currentColor" stroke-width="1.5" stroke-linecap="round" stroke-linejoin="round"/>
</svg>
